<svg xmlns="http://www.w3.org/2000/svg" xmlns:xlink="http://www.w3.org/1999/xlink" width="17" height="23"><defs><path id="a" d="M611.94 2255.93a8.16 8.16 0 018.007 9.737c.012.13.021.264.028.401 0 0-1.192 7.348-7.768 12.528v.409l-.268-.201a14.36 14.36 0 01-.268.2v-.408c-6.575-5.18-7.768-12.528-7.768-12.528a9.81 9.81 0 01.029-.401 8.16 8.16 0 018.008-9.736zm-3.207 8.305a3.284 3.284 0 106.568 0 3.284 3.284 0 00-6.568 0z"/></defs><use fill="#fff" xlink:href="#a" transform="translate(-603 -2256)"/></svg>