<svg version="1.0" xmlns="http://www.w3.org/2000/svg" width="240" height="240" viewBox="0 0 180 180"><path d="M76.5 1c-5.9.9-15.3 3.6-20.4 5.8-2 .9-3.8 1.6-4.1 1.7-4.1.8-18.4 10.9-25.5 18C15.4 37.7 8 50.2 3.4 66.1.9 74.5.6 77.1.6 90c0 12 .4 15.9 2.3 22.5 11 39 43.1 65.1 82.6 67.1 10.1.5 16.6-.2 29.1-3 3.9-.8 15.9-5.9 18.6-7.7 1.4-1.1 2.9-1.9 3.4-1.9 1.5 0 12.2-8.6 18-14.6 10.5-10.7 17.4-22.7 22-38 2.4-7.9 2.7-10.6 2.7-23.9.1-12.8-.3-16.2-2.3-23.4-4.5-16.3-12.8-30.2-24.8-41.9-6.8-6.5-17.5-14.2-19.8-14.2-.8 0-1.4-.5-1.4-1 0-.6-.7-1-1.5-1s-2.9-.8-4.7-1.8c-2.9-1.6-11.5-4.4-18.1-5.8C102.6.5 81.5.2 76.5 1z"/></svg>